<?xml version='1.0' encoding='ascii'?>
<svg xmlns="http://www.w3.org/2000/svg" height="200" version="1.1" width="200">
    <g id="View Layer_LineSet" inkscape:groupmode="lineset" inkscape:label="View Layer_LineSet" xmlns:inkscape="http://www.inkscape.org/namespaces/inkscape">
        <g id="strokes" inkscape:groupmode="layer" inkscape:label="strokes" xmlns:inkscape="http://www.inkscape.org/namespaces/inkscape">
            <path d=" M 101.152, 134.809 92.491, 139.809 83.831, 144.809 75.171, 149.809 66.511, 154.809 57.850, 159.809 49.190, 164.809 40.530, 169.809 31.869, 174.809 23.209, 179.809 21.701, 180.680 16.701, 172.019 11.701, 163.359 7.619, 156.289 16.279, 151.289 24.940, 146.289 33.600, 141.289 42.260, 136.289 50.920, 131.289 59.581, 126.289 68.241, 121.289 76.901, 116.289 85.561, 111.289 87.070, 110.419 87.070, 100.419 87.070, 90.419 87.070, 80.419 87.070, 70.419 87.070, 60.419 87.070, 50.419 87.070, 40.419 87.070, 30.419 87.070, 20.419 87.070, 18.677 97.070, 18.677 107.070, 18.677 115.233, 18.677 115.233, 28.677 115.233, 38.677 115.233, 48.677 115.233, 58.677 115.233, 68.677 115.233, 78.677 115.233, 88.677 115.233, 98.677 115.233, 108.677 115.233, 110.419 123.894, 115.419 132.554, 120.419 141.214, 125.419 149.874, 130.419 158.535, 135.419 167.195, 140.419 175.855, 145.419 184.515, 150.419 193.176, 155.419 194.684, 156.290 189.684, 164.950 184.684, 173.610 180.602, 180.680 171.942, 175.680 163.282, 170.680 154.622, 165.680 145.961, 160.680 137.301, 155.680 128.641, 150.680 119.981, 145.680 111.320, 140.680 102.660, 135.680 101.152, 134.809 " fill="none" stroke="#ffffff" stroke-linecap="butt" stroke-linejoin="round" stroke-opacity="1.0" stroke-width="3.0" />
        </g>
    </g>
</svg>
